<svg width="80" height="76" viewBox="0 0 80 76" fill="none" xmlns="http://www.w3.org/2000/svg">
<path d="M73.8387 28.252V4C73.8387 2.93913 73.4065 1.92172 72.6372 1.17157C71.8679 0.421427 70.8245 0 69.7365 0H65.6344C57.5162 7.916 42.2644 12.348 32.8172 14.452V57.548C42.2644 59.652 57.5162 64.084 65.6344 72H69.7365C70.8245 72 71.8679 71.5786 72.6372 70.8284C73.4065 70.0783 73.8387 69.0609 73.8387 68V43.748C75.6016 43.306 77.1638 42.3049 78.2792 40.9022C79.3946 39.4995 80 37.775 80 36C80 34.225 79.3946 32.5005 78.2792 31.0978C77.1638 29.6951 75.6016 28.694 73.8387 28.252ZM8.2043 16C6.02838 16 3.94159 16.8429 2.40298 18.3431C0.864379 19.8434 0 21.8783 0 24V48C0 50.1217 0.864379 52.1566 2.40298 53.6569C3.94159 55.1571 6.02838 56 8.2043 56H12.3064L16.4086 76H24.6129V16H8.2043Z" fill="#142457"/>
</svg>
