<svg width="104" height="26" viewBox="0 0 104 26" fill="none" xmlns="http://www.w3.org/2000/svg">
<path fill-rule="evenodd" clip-rule="evenodd" d="M58.692 22.7991C58.4983 23.4976 59.1645 24.1001 59.8541 23.8767L70.5198 20.4221C71.1637 20.2136 71.8114 20.7302 71.7513 21.4043L71.4811 24.4326C71.4328 24.9747 71.8515 25.4453 72.3955 25.4604L81.1782 25.7036C81.7097 25.7183 82.1488 25.2928 82.0668 24.7674C81.3773 20.3523 76.4138 11.9776 70.2915 4.76591C70.4518 3.20237 71.1446 1.72267 71.2642 0.708252C68.3842 3.51213 61.0706 14.2193 58.692 22.7991ZM70.0442 18.2915C72.8591 18.6296 72.7894 13.9576 70.2915 4.76591C68.4635 13.2194 67.3571 17.6152 70.0442 18.2915Z" fill="#1B63F5"/>
<path d="M85.1791 25.151C84.9184 25.151 84.707 24.9396 84.707 24.6789V0.614208C84.707 0.353464 84.9184 0.14209 85.1791 0.14209H93.9961C95.7586 0.14209 97.3187 0.487451 98.6763 1.17817C100.034 1.8689 101.094 2.82162 101.856 4.03633C102.618 5.22723 102.999 6.62059 102.999 8.21639C102.999 9.78838 102.594 11.1936 101.785 12.4322C100.999 13.6469 99.9148 14.5996 98.5334 15.2903C97.1519 15.9572 95.58 16.2907 93.8174 16.2907H90.0738C89.813 16.2907 89.6016 16.5021 89.6016 16.7628V24.6789C89.6016 24.9396 89.3903 25.151 89.1295 25.151H85.1791ZM98.7347 25.151C98.5659 25.151 98.41 25.0609 98.3257 24.9147L92.8881 15.4827C92.7667 15.2722 92.8249 15.004 93.0227 14.8628L96.008 12.7304C96.2327 12.5699 96.5467 12.6357 96.688 12.873L103.575 24.4373C103.762 24.752 103.535 25.151 103.169 25.151H98.7347ZM89.6016 11.3527C89.6016 11.6134 89.813 11.8248 90.0738 11.8248H94.0318C94.7701 11.8248 95.4251 11.67 95.9968 11.3604C96.5922 11.0507 97.0567 10.622 97.3901 10.0742C97.7474 9.52638 97.926 8.90712 97.926 8.21639C97.926 7.14458 97.533 6.27523 96.747 5.60832C95.9849 4.94142 94.9964 4.60797 93.7817 4.60797H90.0738C89.813 4.60797 89.6016 4.81934 89.6016 5.08008V11.3527Z" fill="#FD5400"/>
<path d="M44.3581 25.1398C41.9243 25.1398 39.7649 24.6094 37.8798 23.5486C35.9948 22.4648 34.5154 20.9889 33.4417 19.1209C32.3679 17.2299 31.8311 15.0622 31.8311 12.6178C31.8311 10.1733 32.3679 8.01712 33.4417 6.14919C34.5154 4.25819 35.9829 2.7823 37.8441 1.7215C39.7291 0.637634 41.8885 0.0957031 44.3224 0.0957031C46.0404 0.0957031 47.6391 0.395494 49.1184 0.995076C50.5978 1.5716 51.8863 2.39026 52.9839 3.45106C53.9777 4.37058 54.7653 5.41685 55.3469 6.58985C55.4684 6.83506 55.342 7.12687 55.0843 7.21904L51.4175 8.53055C51.1892 8.6122 50.9376 8.50681 50.8217 8.29388C50.4438 7.59979 49.9715 6.98867 49.4048 6.46051C48.7367 5.8148 47.9731 5.31899 47.1141 4.97308C46.2551 4.60411 45.3245 4.41962 44.3224 4.41962C42.8668 4.41962 41.5664 4.77706 40.4211 5.49195C39.2996 6.18378 38.4167 7.1408 37.7725 8.36303C37.1521 9.58526 36.8419 11.0035 36.8419 12.6178C36.8419 14.232 37.164 15.6618 37.8083 16.9071C38.4525 18.1293 39.3473 19.0979 40.4926 19.8128C41.638 20.5046 42.9503 20.8505 44.4297 20.8505C45.4558 20.8505 46.3863 20.666 47.2215 20.297C48.0805 19.905 48.8321 19.3746 49.4764 18.7058C50.0451 18.1366 50.5187 17.4921 50.8973 16.7724C51.0104 16.5573 51.262 16.4495 51.4914 16.5298L55.1573 17.8131C55.4147 17.9032 55.5432 18.1924 55.4258 18.4385C54.8435 19.6586 54.0534 20.7508 53.0555 21.7153C51.9579 22.7991 50.6694 23.6409 49.19 24.2404C47.7106 24.84 46.1 25.1398 44.3581 25.1398Z" fill="#FD5400"/>
<path d="M23.4594 25.151C23.1987 25.151 22.9873 24.9396 22.9873 24.6789V0.614208C22.9873 0.353464 23.1987 0.14209 23.4594 0.14209H27.4098C27.6705 0.14209 27.8819 0.353464 27.8819 0.614208V24.6789C27.8819 24.9396 27.6705 25.151 27.4098 25.151H23.4594Z" fill="#FD5400"/>
<path d="M9.70184 25.1397C8.4369 25.1397 7.2555 24.9892 6.15763 24.6883C5.05976 24.3874 4.08122 23.9707 3.22201 23.4383C2.36281 22.8827 1.64681 22.2692 1.074 21.5979C0.631803 21.0571 0.313504 20.4938 0.119108 19.908C0.0404544 19.6709 0.187172 19.4256 0.427068 19.3562L4.38434 18.2104C4.61836 18.1427 4.86296 18.2657 4.97541 18.4818C5.30028 19.1063 5.78982 19.6588 6.44403 20.1395C7.23163 20.6951 8.2221 20.9845 9.41544 21.0076C10.6804 21.0308 11.7067 20.7646 12.4943 20.209C13.3057 19.6534 13.7115 18.9358 13.7115 18.0561C13.7115 17.2922 13.3893 16.6556 12.7449 16.1464C12.1243 15.6139 11.2651 15.2088 10.1672 14.931L6.90943 14.0977C5.69223 13.7967 4.61822 13.3453 3.68742 12.7435C2.75661 12.1185 2.02868 11.3545 1.50361 10.4517C0.978538 9.54892 0.716003 8.49565 0.716003 7.2919C0.716003 5.00016 1.49167 3.2177 3.04301 1.94451C4.61822 0.648169 6.83783 0 9.70184 0C11.3009 0 12.6971 0.231489 13.8905 0.694466C15.1077 1.1343 16.122 1.77089 16.9335 2.60425C17.6309 3.32052 18.1873 4.14794 18.6027 5.08652C18.7136 5.3371 18.5717 5.62252 18.3092 5.70102L14.4603 6.85183C14.2207 6.92346 13.9696 6.79421 13.8582 6.57038C13.5529 5.95717 13.0863 5.42219 12.4585 4.96544C11.6947 4.40986 10.7281 4.13208 9.55864 4.13208C8.3653 4.13208 7.42257 4.39829 6.73043 4.93071C6.06216 5.46314 5.72803 6.21548 5.72803 7.18773C5.72803 7.95165 5.99056 8.55352 6.51563 8.99335C7.06456 9.43318 7.80443 9.76884 8.73524 10.0003L12.0289 10.799C14.1769 11.3082 15.8475 12.2226 17.0409 13.5421C18.2342 14.8616 18.8309 16.3316 18.8309 17.952C18.8309 19.3872 18.4729 20.6488 17.7569 21.7368C17.0409 22.8017 16.0027 23.635 14.6423 24.2369C13.2819 24.8388 11.6351 25.1397 9.70184 25.1397Z" fill="#FD5400"/>
</svg>
