<svg width="10" height="10" viewBox="0 0 10 10" fill="none" xmlns="http://www.w3.org/2000/svg">
<path d="M9.97667 6.84725C10.09 6.57725 9.76611 6.34725 9.49444 6.46725C8.95135 6.70537 8.36467 6.82796 7.77167 6.82725C5.44667 6.82725 3.56222 4.98059 3.56222 2.70225C3.56198 1.93309 3.78048 1.17971 4.19222 0.530033C4.35 0.281144 4.16056 -0.0633005 3.87167 0.0100328C1.64444 0.578366 0 2.56281 0 4.92337C0 7.72725 2.31944 10 5.18111 10C7.34778 10 9.20333 8.69725 9.97667 6.84725Z" fill="#FF830A"/>
<path d="M7.00612 0.0572431C6.71167 -0.139424 6.36056 0.211688 6.55667 0.506132L6.90667 1.03113C7.04879 1.24395 7.12465 1.49411 7.12465 1.75002C7.12465 2.00593 7.04879 2.25609 6.90667 2.46891L6.55667 2.99391C6.36056 3.28835 6.71223 3.63946 7.00667 3.4428L7.53112 3.0928C7.74393 2.95068 7.9941 2.87482 8.25001 2.87482C8.50591 2.87482 8.75608 2.95068 8.96889 3.0928L9.49389 3.4428C9.78834 3.63946 10.1394 3.28835 9.94278 2.99391L9.59278 2.46891C9.45066 2.25609 9.37481 2.00593 9.37481 1.75002C9.37481 1.49411 9.45066 1.24395 9.59278 1.03113L9.94278 0.506132C10.1394 0.211688 9.78834 -0.139424 9.49334 0.0572431L8.96889 0.407243C8.75608 0.549365 8.50591 0.625219 8.25001 0.625219C7.9941 0.625219 7.74393 0.549365 7.53112 0.407243L7.00612 0.0572431Z" fill="#FF830A"/>
</svg>
