<svg width="27" height="16" viewBox="0 0 27 16" fill="none" xmlns="http://www.w3.org/2000/svg">
<path d="M1.35 2.66667H25.65C26.008 2.66667 26.3514 2.52619 26.6046 2.27614C26.8578 2.02609 27 1.68696 27 1.33333C27 0.979711 26.8578 0.640573 26.6046 0.390525C26.3514 0.140476 26.008 0 25.65 0H1.35C0.991958 0 0.64858 0.140476 0.395406 0.390525C0.142232 0.640573 0 0.979711 0 1.33333C0 1.68696 0.142232 2.02609 0.395406 2.27614C0.64858 2.52619 0.991958 2.66667 1.35 2.66667ZM25.65 13.3333H1.35C0.991958 13.3333 0.64858 13.4738 0.395406 13.7239C0.142232 13.9739 0 14.313 0 14.6667C0 15.0203 0.142232 15.3594 0.395406 15.6095C0.64858 15.8595 0.991958 16 1.35 16H25.65C26.008 16 26.3514 15.8595 26.6046 15.6095C26.8578 15.3594 27 15.0203 27 14.6667C27 14.313 26.8578 13.9739 26.6046 13.7239C26.3514 13.4738 26.008 13.3333 25.65 13.3333ZM25.65 6.66667H1.35C0.991958 6.66667 0.64858 6.80714 0.395406 7.05719C0.142232 7.30724 0 7.64638 0 8C0 8.35362 0.142232 8.69276 0.395406 8.94281C0.64858 9.19286 0.991958 9.33333 1.35 9.33333H25.65C26.008 9.33333 26.3514 9.19286 26.6046 8.94281C26.8578 8.69276 27 8.35362 27 8C27 7.64638 26.8578 7.30724 26.6046 7.05719C26.3514 6.80714 26.008 6.66667 25.65 6.66667Z" fill="#142457"/>
</svg>
