<svg width="20" height="21" viewBox="0 0 20 21" fill="none" xmlns="http://www.w3.org/2000/svg">
<path d="M19.8661 1.82204C19.8638 2.17787 19.7204 2.52001 19.4672 2.77319L12.3301 10.4331L19.4785 17.5816C19.7317 17.8348 19.8752 18.1769 19.8774 18.5327C19.8796 18.8886 19.7404 19.2289 19.4903 19.479C19.2403 19.729 18.8999 19.8683 18.5441 19.8661C18.1882 19.8638 17.8461 19.7204 17.5929 19.4672L10.1831 12.0573L2.2845 19.9559C2.03133 20.2091 1.68919 20.3525 1.33336 20.3547C0.977527 20.3569 0.637147 20.2177 0.387098 19.9677C0.13705 19.7176 -0.0021842 19.3772 2.59151e-05 19.0214C0.00223603 18.6656 0.145709 18.3234 0.398883 18.0703L8.29744 10.1717L0.410238 2.2845C0.157064 2.03133 0.0135904 1.68919 0.0113804 1.33336C0.00917035 0.977527 0.148405 0.637147 0.398453 0.387098C0.648502 0.13705 0.988881 -0.00218422 1.34471 2.59154e-05C1.70055 0.00223605 2.04268 0.145709 2.29586 0.398884L10.1831 8.28609L17.5816 0.887567C17.8348 0.634393 18.1769 0.490919 18.5327 0.488709C18.8886 0.486499 19.2289 0.625733 19.479 0.875782C19.729 1.12583 19.8683 1.46621 19.8661 1.82204Z" fill="#142457"/>
</svg>
