<svg width="104" height="26" viewBox="0 0 104 26" fill="none" xmlns="http://www.w3.org/2000/svg">
<path fill-rule="evenodd" clip-rule="evenodd" d="M58.692 22.7988C58.4983 23.4974 59.1645 24.0998 59.8541 23.8765L70.5198 20.4219C71.1637 20.2133 71.8114 20.7299 71.7513 21.4041L71.4811 24.4324C71.4328 24.9745 71.8515 25.4451 72.3955 25.4602L81.1782 25.7034C81.7097 25.7181 82.1488 25.2925 82.0668 24.7672C81.3773 20.3521 76.4138 11.9774 70.2915 4.76567C70.4518 3.20213 71.1446 1.72242 71.2642 0.708008C68.3842 3.51188 61.0706 14.2191 58.692 22.7988ZM70.0442 18.2912C72.8591 18.6293 72.7894 13.9573 70.2915 4.76567C68.4635 13.2191 67.3571 17.6149 70.0442 18.2912Z" fill="#1B63F5"/>
<path d="M85.1796 25.151C84.9189 25.151 84.7075 24.9396 84.7075 24.6789V0.614208C84.7075 0.353464 84.9189 0.14209 85.1796 0.14209H93.9965C95.7591 0.14209 97.3192 0.487451 98.6768 1.17817C100.034 1.8689 101.094 2.82162 101.856 4.03633C102.619 5.22723 103 6.62059 103 8.21639C103 9.78838 102.595 11.1936 101.785 12.4322C100.999 13.6469 99.9153 14.5996 98.5339 15.2903C97.1524 15.9572 95.5804 16.2907 93.8179 16.2907H90.0742C89.8135 16.2907 89.6021 16.5021 89.6021 16.7628V24.6789C89.6021 24.9396 89.3907 25.151 89.13 25.151H85.1796ZM98.7352 25.151C98.5664 25.151 98.4105 25.0609 98.3262 24.9147L92.8886 15.4827C92.7672 15.2722 92.8254 15.004 93.0232 14.8628L96.0085 12.7304C96.2332 12.5699 96.5472 12.6357 96.6885 12.873L103.575 24.4373C103.763 24.752 103.536 25.151 103.169 25.151H98.7352ZM89.6021 11.3527C89.6021 11.6134 89.8135 11.8248 90.0742 11.8248H94.0323C94.7706 11.8248 95.4256 11.67 95.9973 11.3604C96.5927 11.0507 97.0572 10.622 97.3906 10.0742C97.7479 9.52638 97.9265 8.90712 97.9265 8.21639C97.9265 7.14458 97.5335 6.27523 96.7475 5.60832C95.9853 4.94142 94.9969 4.60797 93.7822 4.60797H90.0742C89.8135 4.60797 89.6021 4.81934 89.6021 5.08008V11.3527Z" fill="#FD5400"/>
<path d="M44.3581 25.1398C41.9243 25.1398 39.7649 24.6094 37.8798 23.5486C35.9948 22.4648 34.5154 20.9889 33.4417 19.1209C32.3679 17.2299 31.8311 15.0622 31.8311 12.6178C31.8311 10.1733 32.3679 8.01712 33.4417 6.14919C34.5154 4.25819 35.9829 2.7823 37.8441 1.7215C39.7291 0.637634 41.8885 0.0957031 44.3224 0.0957031C46.0404 0.0957031 47.6391 0.395494 49.1184 0.995076C50.5978 1.5716 51.8863 2.39026 52.9839 3.45106C53.9777 4.37058 54.7653 5.41685 55.3469 6.58985C55.4684 6.83506 55.342 7.12687 55.0843 7.21904L51.4175 8.53055C51.1892 8.6122 50.9376 8.50681 50.8217 8.29388C50.4438 7.59979 49.9715 6.98867 49.4048 6.46051C48.7367 5.8148 47.9731 5.31899 47.1141 4.97308C46.2551 4.60411 45.3245 4.41962 44.3224 4.41962C42.8668 4.41962 41.5664 4.77706 40.4211 5.49195C39.2996 6.18378 38.4167 7.1408 37.7725 8.36303C37.1521 9.58526 36.8419 11.0035 36.8419 12.6178C36.8419 14.232 37.164 15.6618 37.8083 16.9071C38.4525 18.1293 39.3473 19.0979 40.4926 19.8128C41.638 20.5046 42.9503 20.8505 44.4297 20.8505C45.4558 20.8505 46.3863 20.666 47.2215 20.297C48.0805 19.905 48.8321 19.3746 49.4764 18.7058C50.0451 18.1366 50.5187 17.4921 50.8973 16.7724C51.0104 16.5573 51.262 16.4495 51.4914 16.5298L55.1573 17.8131C55.4147 17.9032 55.5432 18.1924 55.4258 18.4385C54.8435 19.6586 54.0534 20.7508 53.0555 21.7153C51.9579 22.7991 50.6694 23.6409 49.19 24.2404C47.7106 24.84 46.1 25.1398 44.3581 25.1398Z" fill="#FD5400"/>
<path d="M23.4599 25.151C23.1992 25.151 22.9878 24.9396 22.9878 24.6789V0.614208C22.9878 0.353464 23.1992 0.14209 23.4599 0.14209H27.4103C27.671 0.14209 27.8824 0.353464 27.8824 0.614208V24.6789C27.8824 24.9396 27.671 25.151 27.4103 25.151H23.4599Z" fill="#FD5400"/>
<path d="M9.70184 25.1397C8.4369 25.1397 7.2555 24.9892 6.15763 24.6883C5.05976 24.3874 4.08122 23.9707 3.22201 23.4383C2.36281 22.8827 1.64681 22.2692 1.074 21.5979C0.631803 21.0571 0.313504 20.4938 0.119108 19.908C0.0404544 19.6709 0.187172 19.4256 0.427068 19.3562L4.38434 18.2104C4.61836 18.1427 4.86296 18.2657 4.97541 18.4818C5.30028 19.1063 5.78982 19.6588 6.44403 20.1395C7.23163 20.6951 8.2221 20.9845 9.41544 21.0076C10.6804 21.0308 11.7067 20.7646 12.4943 20.209C13.3057 19.6534 13.7115 18.9358 13.7115 18.0561C13.7115 17.2922 13.3893 16.6556 12.7449 16.1464C12.1243 15.6139 11.2651 15.2088 10.1672 14.931L6.90943 14.0977C5.69223 13.7967 4.61822 13.3453 3.68742 12.7435C2.75661 12.1185 2.02868 11.3545 1.50361 10.4517C0.978538 9.54892 0.716003 8.49565 0.716003 7.2919C0.716003 5.00016 1.49167 3.2177 3.04301 1.94451C4.61822 0.648169 6.83783 0 9.70184 0C11.3009 0 12.6971 0.231489 13.8905 0.694466C15.1077 1.1343 16.122 1.77089 16.9335 2.60425C17.6309 3.32052 18.1873 4.14794 18.6027 5.08652C18.7136 5.3371 18.5717 5.62252 18.3092 5.70102L14.4603 6.85183C14.2207 6.92346 13.9696 6.79421 13.8582 6.57038C13.5529 5.95717 13.0863 5.42219 12.4585 4.96544C11.6947 4.40986 10.7281 4.13208 9.55864 4.13208C8.3653 4.13208 7.42257 4.39829 6.73043 4.93071C6.06216 5.46314 5.72803 6.21548 5.72803 7.18773C5.72803 7.95165 5.99056 8.55352 6.51563 8.99335C7.06456 9.43318 7.80443 9.76884 8.73524 10.0003L12.0289 10.799C14.1769 11.3082 15.8475 12.2226 17.0409 13.5421C18.2342 14.8616 18.8309 16.3316 18.8309 17.952C18.8309 19.3872 18.4729 20.6488 17.7569 21.7368C17.0409 22.8017 16.0027 23.635 14.6423 24.2369C13.2819 24.8388 11.6351 25.1397 9.70184 25.1397Z" fill="#FD5400"/>
</svg>
