<svg width="11" height="11" viewBox="0 0 11 11" fill="none" xmlns="http://www.w3.org/2000/svg">
<path d="M5.5 1.61111V0.5M5.5 10.5V9.38889M2.75 2.75L1.96444 1.96444M9.03556 9.03556L8.25 8.25M1.61111 5.5H0.5M10.5 5.5H9.38889M2.75 8.25L1.96444 9.03556M9.03556 1.96444L8.25 2.75M7.72222 5.5C7.72222 6.08937 7.4881 6.6546 7.07135 7.07135C6.6546 7.4881 6.08937 7.72222 5.5 7.72222C4.91063 7.72222 4.3454 7.4881 3.92865 7.07135C3.5119 6.6546 3.27778 6.08937 3.27778 5.5C3.27778 4.91063 3.5119 4.3454 3.92865 3.92865C4.3454 3.5119 4.91063 3.27778 5.5 3.27778C6.08937 3.27778 6.6546 3.5119 7.07135 3.92865C7.4881 4.3454 7.72222 4.91063 7.72222 5.5Z" stroke="#1B63F5" stroke-linecap="round" stroke-linejoin="round"/>
</svg>
