<svg width="80" height="76" viewBox="0 0 80 76" fill="none" xmlns="http://www.w3.org/2000/svg">
<path d="M45.4424 30.1819C43.3801 30.1819 41.7819 31.8287 41.7819 33.862C41.7819 35.8953 43.3801 37.5422 45.4424 37.5422C47.3262 37.5422 48.9244 35.8953 48.9244 33.862C48.9244 31.8287 47.3262 30.1819 45.4424 30.1819ZM20.444 30.1819C18.3816 30.1819 16.7835 31.8287 16.7835 33.862C16.7835 35.8953 18.3816 37.5422 20.444 37.5422C22.3278 37.5422 23.9259 35.8953 23.9259 33.862C23.9259 31.8287 22.3278 30.1819 20.444 30.1819Z" fill="#142457"/>
<path d="M74.1014 23.1893C69.807 17.117 63.8074 13.0596 57.2274 11.2287V11.2379C55.7008 9.4898 53.9776 7.87972 52.0492 6.44444C37.434 -4.50411 16.9174 -1.16434 6.24843 13.8968C-2.34926 26.1335 -1.98321 42.5931 6.78411 54.2869L6.85553 66.4867C6.85553 66.7811 6.90017 67.0755 6.98945 67.3516C7.46264 68.9064 9.06968 69.7621 10.5696 69.2745L21.8725 65.6035C24.8634 66.6983 27.9525 67.324 31.0237 67.4988L30.9791 67.5356C38.9339 73.5067 49.3619 75.3008 58.9238 72.0438L70.2713 75.8528C70.557 75.9448 70.8516 76 71.1552 76C72.7354 76 74.0121 74.6843 74.0121 73.0558V60.7272C81.8777 49.7235 82.0831 34.5151 74.1014 23.1893ZM23.1224 59.0711L22.051 58.6111L13.2123 61.4633L13.123 51.8948L12.4088 51.0667C4.85565 41.5718 4.35569 27.8907 11.4267 17.853C20.0333 5.69001 36.5323 3.00347 48.2994 11.7807C60.1023 20.6224 62.7182 37.5972 54.1919 49.6867C47.0406 59.798 34.2378 63.5334 23.1224 59.0711ZM68.2089 57.5071L67.4947 58.4271L67.584 67.9956L58.8345 64.9594L57.7631 65.4195C52.7634 67.3332 47.4334 67.4896 42.4962 66.0635L42.4784 66.0543C49.0762 63.9658 55.0579 59.7336 59.3702 53.6429C66.1912 43.9548 67.2983 31.7825 63.3342 21.4044L63.3878 21.4412C65.4412 22.9593 67.325 24.8546 68.9232 27.1455C75.4049 36.3092 75.0389 48.785 68.2089 57.5071Z" fill="#142457"/>
<path d="M32.9432 30.1819C30.8808 30.1819 29.2827 31.8287 29.2827 33.862C29.2827 35.8953 30.8808 37.5422 32.9432 37.5422C34.827 37.5422 36.4251 35.8953 36.4251 33.862C36.4251 31.8287 34.827 30.1819 32.9432 30.1819Z" fill="#142457"/>
</svg>
