<svg width="80" height="76" viewBox="0 0 80 76" fill="none" xmlns="http://www.w3.org/2000/svg">
<path d="M65.4545 45.6H80V0H65.4545M50.9091 0H18.1818C15.1636 0 12.5818 1.9 11.4909 4.636L0.509091 31.426C0.181818 32.3 0 33.212 0 34.2V41.8C0 43.8156 0.766232 45.7487 2.13013 47.174C3.49403 48.5993 5.34388 49.4 7.27273 49.4H30.2182L26.7636 66.766C26.6909 67.146 26.6545 67.526 26.6545 67.944C26.6545 69.54 27.2727 70.946 28.2545 71.972L32.1091 76L56.0364 50.958C57.3818 49.59 58.1818 47.69 58.1818 45.6V7.6C58.1818 5.58435 57.4156 3.65126 56.0517 2.22599C54.6878 0.800712 52.8379 0 50.9091 0Z" fill="#142457"/>
</svg>
