<svg width="80" height="76" viewBox="0 0 80 76" fill="none" xmlns="http://www.w3.org/2000/svg">
<path d="M80 34.2C80 32.1844 79.2338 30.2513 77.8699 28.826C76.506 27.4007 74.6561 26.6 72.7273 26.6H49.7455L53.2364 9.234C53.3091 8.854 53.3455 8.436 53.3455 8.018C53.3455 6.46 52.7273 5.016 51.7455 3.99L47.8909 0L23.9636 25.004C22.6182 26.41 21.8182 28.31 21.8182 30.4V68.4C21.8182 70.4156 22.5844 72.3487 23.9483 73.774C25.3122 75.1993 27.1621 76 29.0909 76H61.8182C64.8364 76 67.4182 74.1 68.5091 71.364L79.4909 44.574C79.8182 43.7 80 42.788 80 41.8V34.2ZM0 76H14.5455V30.4H0V76Z" fill="#142457"/>
</svg>
