<svg width="1440" height="1562" viewBox="0 0 1440 1562" fill="none" xmlns="http://www.w3.org/2000/svg">
<g clip-path="url(#clip0_881_21200)">
<path d="M696.737 509.532C406.41 501.139 -48.7237 437.098 -240 406.127V0H1680V544C1473.21 532.844 987.063 517.924 696.737 509.532Z" fill="url(#paint0_radial_881_21200)"/>
<path d="M1046 526.5C1046 503.294 1036.78 481.038 1020.37 464.628C1003.96 448.219 981.706 439 958.5 439C935.294 439 913.038 448.219 896.628 464.628C880.219 481.038 871 494.294 871 517.5C938.952 520.472 977.296 522.446 1046 526.5Z" fill="#FD6900"/>
<path d="M159.69 624.788C102.734 662.401 -18.9691 671.804 -72.7012 671.804C-386.384 667.305 -275.495 385.119 -160 278C-71.5116 195.929 87.6892 241.14 148.944 270.156C225.512 306.425 251.035 382.993 264.468 444.785C277.901 506.577 230.885 577.772 159.69 624.788Z" fill="#D7D7D7"/>
<path d="M165.271 477.297C171.719 412.818 195.72 382.37 206.914 375.206C213.63 370.728 243.452 366.877 309.005 387.295C390.946 412.818 466.171 494.76 470.201 510.879C474.231 526.999 484.978 543.119 440.649 564.611C396.32 586.104 369.454 586.104 274.079 590.134C178.704 594.164 157.211 557.895 165.271 477.297Z" fill="#C9C9C9"/>
<path d="M55.2659 558.391C90.7291 517.554 121.088 497.942 142.581 488.539C157.855 481.857 169.984 477.524 193.626 476.449C223.179 475.106 260.791 523.465 278.254 546.301C295.717 569.137 310.494 602.72 298.404 640.332C286.314 677.945 193.626 699.438 114.371 708.841C35.1162 718.244 -11.8993 695.408 -15.9292 669.885C-19.9592 644.362 10.9368 609.436 55.2659 558.391Z" fill="#E7E1E1"/>
<path d="M112.717 443C103.389 443 96.9665 467.136 94.9211 479.205C93.2817 487.182 91.2392 504.364 113.944 505.591C136.648 506.818 132.353 484.727 131.739 479.205C131.126 473.682 124.376 443 112.717 443Z" fill="#FFA032"/>
<path d="M113.944 504.977V524" stroke="#9E9CA8" stroke-width="4"/>
<path d="M1208.71 492.197C1155.91 502.197 1143.92 536.394 1148.21 540.197C1152.5 544 1288.21 540.197 1288.21 540.197L1314.71 507.197C1301.37 498.03 1261.51 482.197 1208.71 492.197Z" fill="#C9C9C9"/>
<path d="M1326 481.029C1301.2 501.429 1279.67 527.862 1272 538.529V549.029H1462C1497.4 548.974 1498.66 539.797 1462 504.529C1441.83 486.196 1399.1 449.829 1389.5 451.029C1377.5 452.529 1357 455.529 1326 481.029Z" fill="#002034"/>
<mask id="mask0_881_21200" style="mask-type:alpha" maskUnits="userSpaceOnUse" x="150" y="443" width="1318" height="1101">
<path d="M1402 453.685C1403.2 449.685 1391.5 445.019 1385.5 443.185C1382 442.519 1371.6 443.285 1358 451.685C1341 462.185 1295.5 494.185 1275.5 506.185C1255.5 518.185 1236.5 528.185 1219 532.685C1201.5 537.185 1077.5 534.185 1066 536.685C1054.5 539.185 1007.5 547.185 995 570.685C982.5 594.185 968 607.685 956 623.185C944 638.685 883.5 654.185 864 658.185C844.5 662.185 807 673.685 807 695.685C807 717.685 894 742.185 894 768.185C894 794.185 840.5 829.185 708.5 846.185C576.5 863.185 542.5 907.185 546.5 939.185C550.5 971.185 706 988.685 738.5 996.185C771 1003.69 811 1013.19 820 1048.19C829 1083.19 820 1111.69 765.5 1135.19C711 1158.69 633.5 1170.19 518 1188.19C425.6 1202.59 255.833 1252.19 182.5 1275.19L150 1333.19L366.5 1501.69C421.833 1487.52 573.7 1455.29 738.5 1439.69C944.5 1420.19 1085.5 1435.69 1185 1470.69C1264.6 1498.69 1261.17 1530.69 1249.5 1543.19H1468C1467.17 1522.85 1459.3 1479.89 1434.5 1470.69C1403.5 1459.19 1396.5 1442.19 1378.5 1424.69C1360.5 1407.19 1290.5 1360.69 1249.5 1333.19C1208.5 1305.69 1152.5 1238.19 1152 1209.19C1151.5 1180.19 1156.5 1142.19 1185 1119.69C1213.5 1097.19 1255.5 1070.19 1257 1048.19C1258.5 1026.19 1226 1006.19 1189.5 996.185C1153 986.185 1021 953.685 1033 915.685C1045 877.685 1148.5 830.185 1155.5 791.185C1162.5 752.185 1068.5 736.185 1025.5 731.685C982.5 727.185 894 709.185 894 687.185C894 665.185 954 654.685 968 645.685C982 636.685 1009 587.685 1021.5 570.685C1034 553.685 1091 545.185 1123 545.185C1155 545.185 1208 548.685 1236.5 545.185C1265 541.685 1280.5 521.185 1298.5 506.185C1316.5 491.185 1346 472.5 1370 468.685C1393.89 464.889 1400.5 458.685 1402 453.685Z" fill="#59A7FF"/>
</mask>
<g mask="url(#mask0_881_21200)">
<path d="M1402 453.685C1403.2 449.685 1391.5 445.019 1385.5 443.185C1382 442.519 1371.6 443.285 1358 451.685C1341 462.185 1295.5 494.185 1275.5 506.185C1255.5 518.185 1236.5 528.185 1219 532.685C1201.5 537.185 1077.5 534.185 1066 536.685C1054.5 539.185 1007.5 547.185 995 570.685C982.5 594.185 968 607.685 956 623.185C944 638.685 883.5 654.185 864 658.185C844.5 662.185 807 673.685 807 695.685C807 717.685 894 742.185 894 768.185C894 794.185 840.5 829.185 708.5 846.185C576.5 863.185 542.5 907.185 546.5 939.185C550.5 971.185 706 988.685 738.5 996.185C771 1003.69 811 1013.19 820 1048.19C829 1083.19 820 1111.69 765.5 1135.19C711 1158.69 633.5 1170.19 518 1188.19C425.6 1202.59 255.833 1252.19 182.5 1275.19L150 1333.19L366.5 1501.69C421.833 1487.52 573.7 1455.29 738.5 1439.69C944.5 1420.19 1085.5 1435.69 1185 1470.69C1264.6 1498.69 1291 1523.5 1308 1538L1468 1543.19C1467.17 1522.85 1459.3 1479.89 1434.5 1470.69C1403.5 1459.19 1419 1464.5 1401 1447C1383 1429.5 1290.5 1360.69 1249.5 1333.19C1208.5 1305.69 1152.5 1238.19 1152 1209.19C1151.5 1180.19 1156.5 1142.19 1185 1119.69C1213.5 1097.19 1255.5 1070.19 1257 1048.19C1258.5 1026.19 1226 1006.19 1189.5 996.185C1153 986.185 1021 953.685 1033 915.685C1045 877.685 1148.5 830.185 1155.5 791.185C1162.5 752.185 1068.5 736.185 1025.5 731.685C982.5 727.185 894 709.185 894 687.185C894 665.185 954 654.685 968 645.685C982 636.685 1009 587.685 1021.5 570.685C1034 553.685 1091 545.185 1123 545.185C1155 545.185 1208 548.685 1236.5 545.185C1265 541.685 1280.5 521.185 1298.5 506.185C1316.5 491.185 1346 472.5 1370 468.685C1393.89 464.889 1400.5 458.685 1402 453.685Z" fill="#59A7FF"/>
<path d="M822.5 1546.5V1065.5L105 1144L63.5 1576L822.5 1546.5Z" fill="url(#paint1_linear_881_21200)"/>
<path d="M1266 1151L1327.5 1010L1032.5 920L1083 1177.5L1266 1151Z" fill="url(#paint2_linear_881_21200)"/>
<path d="M867 909.5L893.5 767.5L466.5 909.5L600.5 1025L867 909.5Z" fill="url(#paint3_linear_881_21200)"/>
<path d="M1153.5 855.5L1206 762L894.5 688.5L937 781L1153.5 855.5Z" fill="url(#paint4_linear_881_21200)"/>
<path d="M1253 1499.5L1450 1441L1153 1188.5V1423L1253 1499.5Z" fill="url(#paint5_linear_881_21200)"/>
</g>
<path d="M1291.6 498.06C1280.8 499.26 1262.43 515.893 1254.6 524.06C1253.6 524.727 1250.3 528.56 1245.1 538.56C1238.6 551.06 1248.1 559.56 1261.1 563.56C1274.1 567.56 1338.6 561.56 1335.1 542.56C1331.6 523.56 1305.1 496.56 1291.6 498.06Z" fill="#696B72"/>
<path d="M1346.76 533.099C1337.16 531.899 1322.76 541.932 1316.76 547.099C1313.59 550.765 1307.96 559.299 1310.76 564.099C1314.26 570.099 1335.76 570.099 1346.76 570.599C1357.76 571.099 1361.26 566.099 1360.76 552.599C1360.26 539.099 1358.76 534.599 1346.76 533.099Z" fill="#949BAE"/>
<path d="M-42.1631 1316.22C-0.113144 1267.79 35.8839 1244.53 61.3688 1233.37C79.4796 1225.45 93.8619 1220.31 121.895 1219.03C156.937 1217.44 201.535 1274.8 222.242 1301.89C242.948 1328.97 260.469 1368.8 246.134 1413.42C231.798 1458.03 121.895 1483.52 27.92 1494.68C-66.0552 1505.83 -121.803 1478.74 -126.581 1448.47C-131.36 1418.2 -94.7255 1376.77 -42.1631 1316.22Z" fill="#C9C9C9"/>
<path d="M63.288 1424.15C70.0836 1356.19 95.3783 1324.1 107.176 1316.55C114.255 1311.83 145.685 1307.78 214.773 1329.3C301.134 1356.19 380.416 1442.56 384.663 1459.54C388.91 1476.53 400.236 1493.52 353.517 1516.17C306.797 1538.83 278.482 1538.83 177.964 1543.07C77.4455 1547.32 54.7935 1509.1 63.288 1424.15Z" fill="#E7E1E1"/>
<path d="M1280.14 1458.48C1297.62 1456.29 1323.85 1474.59 1334.78 1484.01C1340.54 1490.7 1350.8 1506.26 1345.7 1515.01C1339.33 1525.95 1300.17 1525.95 1280.14 1526.86C1260.11 1527.77 1220.11 1528.02 1221.02 1503.41C1221.93 1478.79 1258.28 1461.22 1280.14 1458.48Z" fill="#B7B7B7"/>
<path d="M1380.92 1429.12C1359.43 1431.5 1322.89 1464.56 1307.31 1480.79C1305.32 1482.11 1298.75 1489.73 1288.41 1509.6C1275.47 1534.44 1294.38 1551.33 1320.24 1559.28C1346.1 1567.23 1474.43 1555.31 1467.47 1517.55C1460.5 1479.79 1407.78 1426.14 1380.92 1429.12Z" fill="#696B72"/>
<path d="M1447.06 1493.18C1464.54 1490.99 1490.77 1509.29 1501.69 1518.71C1507.46 1525.39 1517.72 1540.95 1512.62 1549.71C1506.25 1560.65 1467.09 1560.65 1447.06 1561.56C1427.02 1562.47 1420.65 1553.35 1421.56 1528.74C1422.47 1504.12 1425.2 1495.91 1447.06 1493.18Z" fill="#949BAE"/>
<ellipse cx="1098.5" cy="926" rx="34.5" ry="12" fill="#D9D9D9"/>
<ellipse cx="705.5" cy="1070" rx="63.5" ry="22" fill="#D9D9D9"/>
<path d="M1087.34 827C1075.71 827 1067.7 857.096 1065.15 872.144C1063.1 882.091 1060.56 903.515 1088.87 905.045C1117.18 906.576 1111.82 879.03 1111.06 872.144C1110.29 865.258 1101.88 827 1087.34 827Z" fill="#FFA032"/>
<path d="M1088.87 904.28V928" stroke="#9E9CA8" stroke-width="7"/>
<path d="M685.8 928C669.455 928 658.199 970.299 654.614 991.448C651.741 1005.43 648.162 1035.54 687.951 1037.69C727.74 1039.84 720.213 1001.13 719.137 991.448C718.062 981.769 706.233 928 685.8 928Z" fill="#FFA032"/>
<path d="M687.951 1036.61V1069.95" stroke="#9E9CA8" stroke-width="7"/>
<path d="M327.174 1358C312.137 1358 301.783 1388.05 298.485 1403.08C295.842 1413.02 292.549 1434.41 329.153 1435.94C365.756 1437.47 358.831 1409.96 357.842 1403.08C356.852 1396.21 345.97 1358 327.174 1358Z" fill="#FFA032"/>
<path d="M328.868 1435.28V1459" stroke="#9E9CA8" stroke-width="7"/>
<path d="M1068.5 545.5C1064.31 544.103 1060 537 1060 537C1074.15 537.717 1082.12 536.651 1095 532C1095 532 1094.17 538.833 1091.5 541.5C1087 546 1073 547 1068.5 545.5Z" fill="#A13B0B"/>
<path d="M1080.5 513L1082 536L1063 527.5L1080.5 513Z" fill="#FD6900"/>
</g>
<defs>
<radialGradient id="paint0_radial_881_21200" cx="0" cy="0" r="1" gradientTransform="matrix(-1015.52 -310.215 340.421 -722.61 1023.97 468.07)" gradientUnits="userSpaceOnUse">
<stop stop-color="#FFCCB5"/>
<stop offset="1" stop-color="#FAFAFA"/>
</radialGradient>
<linearGradient id="paint1_linear_881_21200" x1="469.5" y1="1238" x2="520.5" y2="1504" gradientUnits="userSpaceOnUse">
<stop stop-color="#2C1D81"/>
<stop offset="1" stop-color="#59A7FF"/>
</linearGradient>
<linearGradient id="paint2_linear_881_21200" x1="1085.5" y1="896" x2="1109.5" y2="1161" gradientUnits="userSpaceOnUse">
<stop stop-color="#2C1D81"/>
<stop offset="1" stop-color="#59A7FF"/>
</linearGradient>
<linearGradient id="paint3_linear_881_21200" x1="754.5" y1="793.5" x2="778" y2="930.5" gradientUnits="userSpaceOnUse">
<stop stop-color="#2C1D81"/>
<stop offset="1" stop-color="#59A7FF"/>
</linearGradient>
<linearGradient id="paint4_linear_881_21200" x1="1054.5" y1="586" x2="999.5" y2="797.5" gradientUnits="userSpaceOnUse">
<stop stop-color="#2C1D81"/>
<stop offset="1" stop-color="#59A7FF"/>
</linearGradient>
<linearGradient id="paint5_linear_881_21200" x1="1264.5" y1="1230.5" x2="1185" y2="1411" gradientUnits="userSpaceOnUse">
<stop stop-color="#2C1D81"/>
<stop offset="1" stop-color="#59A7FF"/>
</linearGradient>
<clipPath id="clip0_881_21200">
<rect width="1440" height="1562" fill="white"/>
</clipPath>
</defs>
</svg>
