<svg width="375" height="489" viewBox="0 0 375 489" fill="none" xmlns="http://www.w3.org/2000/svg">
<g clip-path="url(#clip0_895_21406)">
<path d="M183.932 159.26C126.925 156.637 37.5579 136.62 0 126.94V0H377V173C336.397 169.513 240.939 161.883 183.932 159.26Z" fill="url(#paint0_linear_895_21406)"/>
<path d="M20.6358 195.489C6.71776 207.266 -23.0221 210.211 -36.1523 210.211L-46 75.1889C-30.9003 74.4879 3.04131 75.3572 18.0097 84.4428C36.7203 95.7997 42.9571 119.776 46.2397 139.125C49.5222 158.474 38.0333 180.767 20.6358 195.489Z" fill="#D7D7D7"/>
<path d="M22 149.305C23.5756 129.115 29.4404 119.581 32.1759 117.337C33.8172 115.935 41.1044 114.729 57.1233 121.123C77.1469 129.115 95.5291 154.773 96.5139 159.821C97.4987 164.868 100.125 169.916 89.2923 176.646C78.4599 183.376 71.8948 183.376 48.5887 184.638C25.2826 185.9 20.0305 174.543 22 149.305Z" fill="#C9C9C9"/>
<path d="M-4.88146 174.698C3.78448 161.911 11.203 155.77 16.4551 152.826C20.1875 150.733 23.1515 149.376 28.9288 149.04C36.1504 148.619 45.3416 163.762 49.6089 170.913C53.8762 178.063 57.487 188.579 54.5327 200.357C51.5784 212.134 28.9288 218.864 9.56174 221.809C-9.80531 224.753 -21.2942 217.602 -22.279 209.61C-23.2637 201.619 -15.7139 190.682 -4.88146 174.698Z" fill="#E7E1E1"/>
<path d="M313.398 154.122C300.496 157.254 297.565 167.962 298.614 169.153C299.663 170.344 332.825 169.153 332.825 169.153L339.301 158.819C336.043 155.949 326.301 150.991 313.398 154.122Z" fill="#C9C9C9"/>
<path d="M342.061 150.625C336.001 157.013 330.739 165.29 328.865 168.63V171.918H375.294V157.983C370.366 152.243 359.924 140.855 357.578 141.231C354.646 141.7 349.636 142.64 342.061 150.625Z" fill="#002034"/>
<mask id="mask0_895_21406" style="mask-type:alpha" maskUnits="userSpaceOnUse" x="54" y="138" width="323" height="346">
<path d="M360.633 142.063C360.926 140.81 358.067 139.349 356.601 138.775C355.746 138.566 353.204 138.806 349.881 141.437C345.727 144.725 334.608 154.745 329.721 158.502C324.834 162.26 320.191 165.391 315.914 166.8C311.638 168.209 281.337 167.27 278.527 168.053C275.717 168.836 264.231 171.341 261.177 178.699C258.122 186.058 254.579 190.285 251.647 195.139C248.714 199.992 233.93 204.846 229.165 206.098C224.4 207.351 215.237 210.952 215.237 217.84C215.237 224.729 236.496 232.401 236.496 240.542C236.496 248.684 223.423 259.643 191.167 264.967C158.911 270.29 150.602 284.068 151.58 294.088C152.557 304.108 190.556 309.588 198.498 311.936C206.439 314.285 216.214 317.259 218.413 328.219C220.613 339.178 218.413 348.103 205.095 355.461C191.778 362.82 172.839 366.421 144.615 372.057C122.036 376.566 80.5513 392.097 62.6313 399.299L54.6895 417.461L107.594 470.224C121.116 465.788 158.226 455.694 198.498 450.809C248.837 444.703 283.292 449.557 307.606 460.516C327.057 469.284 326.218 479.304 323.368 483.218H376.761C376.557 476.851 374.635 463.397 368.575 460.516C361 456.915 359.289 451.592 354.89 446.112C350.492 440.633 333.386 426.072 323.368 417.461C313.349 408.85 299.664 387.714 299.542 378.633C299.42 369.552 300.642 357.653 307.606 350.608C314.57 343.562 324.834 335.108 325.2 328.219C325.567 321.33 317.625 315.067 308.706 311.936C299.786 308.805 267.53 298.628 270.463 286.729C273.395 274.83 298.687 259.956 300.397 247.744C302.108 235.532 279.138 230.522 268.63 229.113C258.122 227.704 236.496 222.068 236.496 215.179C236.496 208.29 251.158 205.002 254.579 202.184C258 199.366 264.598 184.022 267.653 178.699C270.707 173.376 284.636 170.714 292.456 170.714C300.275 170.714 313.226 171.81 320.191 170.714C327.155 169.618 330.943 163.199 335.341 158.502C339.74 153.805 346.949 147.954 352.813 146.76C358.65 145.571 360.266 143.629 360.633 142.063Z" fill="#59A7FF"/>
</mask>
<g mask="url(#mask0_895_21406)">
<path d="M360.633 142.063C360.926 140.81 358.067 139.349 356.601 138.775C355.746 138.566 353.204 138.806 349.881 141.437C345.727 144.725 334.608 154.745 329.721 158.502C324.834 162.26 320.191 165.391 315.914 166.8C311.638 168.209 281.337 167.27 278.527 168.053C275.717 168.836 264.231 171.341 261.177 178.699C258.122 186.058 254.579 190.285 251.647 195.139C248.714 199.992 233.93 204.846 229.165 206.098C224.4 207.351 215.237 210.952 215.237 217.84C215.237 224.729 236.496 232.401 236.496 240.542C236.496 248.684 223.423 259.643 191.167 264.967C158.911 270.29 150.602 284.068 151.58 294.088C152.557 304.108 190.556 309.588 198.498 311.936C206.439 314.285 216.214 317.259 218.413 328.219C220.613 339.178 218.413 348.103 205.095 355.461C191.778 362.82 172.839 366.421 144.615 372.057C122.036 376.566 80.5513 392.097 62.6313 399.299L54.6895 417.461L107.594 470.224C121.116 465.788 158.226 455.694 198.498 450.809C248.837 444.703 283.292 449.557 307.606 460.516C327.057 469.284 333.509 477.054 337.663 481.595L376.761 483.218C376.557 476.851 374.635 463.397 368.575 460.516C361 456.915 364.787 458.58 360.389 453.1C355.99 447.62 333.386 426.072 323.368 417.461C313.349 408.85 299.664 387.714 299.542 378.633C299.42 369.552 300.642 357.653 307.606 350.608C314.57 343.562 324.834 335.108 325.2 328.219C325.567 321.33 317.625 315.067 308.706 311.936C299.786 308.805 267.53 298.628 270.463 286.729C273.395 274.83 298.687 259.956 300.397 247.744C302.108 235.532 279.138 230.522 268.63 229.113C258.122 227.704 236.496 222.068 236.496 215.179C236.496 208.29 251.158 205.002 254.579 202.184C258 199.366 264.598 184.022 267.653 178.699C270.707 173.376 284.636 170.714 292.456 170.714C300.275 170.714 313.226 171.81 320.191 170.714C327.155 169.618 330.943 163.199 335.341 158.502C339.74 153.805 346.949 147.954 352.813 146.76C358.65 145.571 360.266 143.629 360.633 142.063Z" fill="#59A7FF"/>
<path d="M219.024 484.256V333.64L43.6929 358.221L33.5518 493.493L219.024 484.256Z" fill="url(#paint1_linear_895_21406)"/>
<path d="M327.399 360.413L342.427 316.262L270.34 288.08L282.68 368.711L327.399 360.413Z" fill="url(#paint2_linear_895_21406)"/>
<path d="M229.898 284.792L236.374 240.328L132.03 284.792L164.775 320.959L229.898 284.792Z" fill="url(#paint3_linear_895_21406)"/>
<path d="M299.907 267.883L312.737 238.606L236.617 215.591L247.003 244.555L299.907 267.883Z" fill="url(#paint4_linear_895_21406)"/>
<path d="M324.223 469.539L372.362 451.221L299.786 372.155V445.584L324.223 469.539Z" fill="url(#paint5_linear_895_21406)"/>
</g>
<path d="M333.655 155.958C331.016 156.333 326.528 161.542 324.614 164.099C324.37 164.308 323.563 165.508 322.292 168.639C320.704 172.554 323.026 175.215 326.202 176.468C329.379 177.72 345.141 175.841 344.285 169.892C343.43 163.943 336.954 155.488 333.655 155.958Z" fill="#696B72"/>
<path d="M347.133 166.93C344.787 166.554 341.268 169.696 339.802 171.313C339.028 172.462 337.651 175.134 338.335 176.637C339.191 178.515 344.445 178.515 347.133 178.672C349.821 178.829 350.676 177.263 350.554 173.036C350.431 168.808 350.065 167.399 347.133 166.93Z" fill="#949BAE"/>
<path d="M7.73108 412.15C18.0066 396.983 26.8029 389.699 33.0305 386.206C37.4562 383.724 40.9707 382.115 47.821 381.716C56.3839 381.217 67.2821 399.178 72.342 407.659C77.4019 416.141 81.6834 428.614 78.1804 442.584C74.6774 456.553 47.821 464.536 24.8569 468.028C1.89271 471.521 -11.7301 463.039 -12.8977 453.56C-14.0654 444.08 -5.11327 431.108 7.73108 412.15Z" fill="#C9C9C9"/>
<path d="M33.499 445.945C35.1595 424.665 41.3407 414.617 44.2237 412.253C45.9534 410.775 53.6337 409.504 70.5165 416.242C91.6199 424.665 110.994 451.708 112.031 457.027C113.069 462.347 115.837 467.667 104.42 474.76C93.0038 481.853 86.0846 481.853 61.5216 483.183C36.9585 484.513 31.4232 472.543 33.499 445.945Z" fill="#E7E1E1"/>
<path d="M330.853 456.694C335.125 456.009 341.534 461.738 344.205 464.688C345.614 466.782 348.121 471.654 346.875 474.395C345.317 477.821 335.749 477.821 330.853 478.107C325.957 478.392 316.183 478.47 316.406 470.762C316.628 463.053 325.512 457.551 330.853 456.694Z" fill="#B7B7B7"/>
<path d="M355.48 447.5C350.229 448.247 341.3 458.597 337.491 463.679C337.005 464.094 335.401 466.479 332.873 472.702C329.712 480.48 334.331 485.769 340.651 488.258C346.972 490.747 378.33 487.014 376.628 475.191C374.927 463.368 362.043 446.567 355.48 447.5Z" fill="#696B72"/>
<path d="M371.641 467.559C375.914 466.874 382.322 472.603 384.993 475.553C386.402 477.646 388.909 482.519 387.663 485.26C386.105 488.686 376.537 488.686 371.641 488.971C366.746 489.257 365.188 486.402 365.41 478.693C365.633 470.985 366.3 468.415 371.641 467.559Z" fill="#949BAE"/>
<path d="M9.15763 138.565C6.87838 138.565 5.3089 146.123 4.80906 149.902C4.40846 152.4 3.90936 157.78 9.45753 158.165C15.0057 158.549 13.956 151.632 13.8061 149.902C13.6561 148.173 12.0067 138.565 9.15763 138.565Z" fill="#FFA032"/>
<path d="M9.45801 157.973V163.929" stroke="#9E9CA8" stroke-width="0.957956"/>
<ellipse cx="286.468" cy="289.958" rx="8.43055" ry="3.75756" fill="#D9D9D9"/>
<ellipse cx="190.433" cy="335.049" rx="15.5171" ry="6.88887" fill="#D9D9D9"/>
<path d="M283.74 258.958C280.898 258.958 278.941 268.382 278.318 273.094C277.818 276.209 277.196 282.917 284.114 283.396C291.032 283.876 289.723 275.25 289.536 273.094C289.349 270.938 287.293 258.958 283.74 258.958Z" fill="#FFA032"/>
<path d="M284.114 283.157V290.585" stroke="#9E9CA8" stroke-width="1.67642"/>
<path d="M185.62 290.585C181.625 290.585 178.875 303.83 177.999 310.452C177.297 314.83 176.422 324.259 186.145 324.932C195.868 325.606 194.029 313.483 193.766 310.452C193.503 307.422 190.613 290.585 185.62 290.585Z" fill="#FFA032"/>
<path d="M186.145 324.595V335.034" stroke="#9E9CA8" stroke-width="1.67642"/>
<path d="M97.9838 425.231C94.3093 425.231 91.779 434.642 90.9732 439.348C90.3274 442.458 89.5227 449.157 98.4673 449.636C107.412 450.114 105.72 441.501 105.478 439.348C105.236 437.194 102.577 425.231 97.9838 425.231Z" fill="#FFA032"/>
<path d="M98.3984 449.429V456.857" stroke="#9E9CA8" stroke-width="1.67642"/>
<path d="M279.137 170.813C278.112 170.375 277.06 168.151 277.06 168.151C280.518 168.376 282.464 168.042 285.612 166.585C285.612 166.585 285.409 168.725 284.757 169.56C283.657 170.969 280.236 171.282 279.137 170.813Z" fill="#A13B0B"/>
<path d="M282.069 160.636L282.435 167.838L277.793 165.176L282.069 160.636Z" fill="#FD6900"/>
</g>
<defs>
<linearGradient id="paint0_linear_895_21406" x1="338.143" y1="34.1941" x2="16.9625" y2="122.384" gradientUnits="userSpaceOnUse">
<stop stop-color="#FFD1C3"/>
<stop offset="1" stop-color="#FFFBF4"/>
</linearGradient>
<linearGradient id="paint1_linear_895_21406" x1="132.763" y1="387.655" x2="152.772" y2="469.094" gradientUnits="userSpaceOnUse">
<stop stop-color="#2C1D81"/>
<stop offset="1" stop-color="#59A7FF"/>
</linearGradient>
<linearGradient id="paint2_linear_895_21406" x1="283.291" y1="280.565" x2="292.871" y2="363.113" gradientUnits="userSpaceOnUse">
<stop stop-color="#2C1D81"/>
<stop offset="1" stop-color="#59A7FF"/>
</linearGradient>
<linearGradient id="paint3_linear_895_21406" x1="202.407" y1="248.469" x2="211.667" y2="290.595" gradientUnits="userSpaceOnUse">
<stop stop-color="#2C1D81"/>
<stop offset="1" stop-color="#59A7FF"/>
</linearGradient>
<linearGradient id="paint4_linear_895_21406" x1="275.715" y1="183.495" x2="254.509" y2="247.134" gradientUnits="userSpaceOnUse">
<stop stop-color="#2C1D81"/>
<stop offset="1" stop-color="#59A7FF"/>
</linearGradient>
<linearGradient id="paint5_linear_895_21406" x1="327.033" y1="385.307" x2="298.147" y2="436.488" gradientUnits="userSpaceOnUse">
<stop stop-color="#2C1D81"/>
<stop offset="1" stop-color="#59A7FF"/>
</linearGradient>
<clipPath id="clip0_895_21406">
<rect width="375" height="489" fill="white"/>
</clipPath>
</defs>
</svg>
