<svg width="50" height="54" viewBox="0 0 50 54" fill="none" xmlns="http://www.w3.org/2000/svg">
<path fill-rule="evenodd" clip-rule="evenodd" d="M0.198828 44.4552C-0.775718 47.3655 1.99818 49.9171 4.92088 48.9804L22.2196 43.4363C24.9464 42.5624 27.6814 44.7528 27.4243 47.6046L27.288 49.1161C27.0808 51.4142 28.8557 53.4106 31.1623 53.4738L46.2566 53.8874C48.5079 53.9491 50.3301 52.1305 49.7755 49.9478C47.2588 40.0427 36.9861 23.3034 24.5056 8.75676C24.8552 5.38251 26.3663 2.18919 26.6269 0C20.705 5.70485 6.18785 26.5701 0.198828 44.4552ZM23.9661 37.9459C30.1055 38.6757 29.9535 28.5931 24.5056 8.75676C20.5187 27 18.1056 36.4865 23.9661 37.9459Z" fill="#FD5400"/>
</svg>
