<svg width="752" height="480" viewBox="0 0 752 480" fill="none" xmlns="http://www.w3.org/2000/svg">
<path d="M437.103 393.472C380.147 431.085 258.444 440.488 204.711 440.488C-108.971 435.989 1.91781 153.803 117.413 46.684C205.901 -35.387 365.102 9.82449 426.356 38.8399C502.925 75.1091 528.448 151.677 541.881 213.469C555.314 275.261 508.298 346.457 437.103 393.472Z" fill="#D7D7D7"/>
<path d="M442.684 245.981C449.132 181.502 473.132 151.054 484.326 143.89C491.043 139.412 520.864 135.561 586.417 155.979C668.359 181.502 743.584 263.444 747.614 279.563C751.644 295.683 762.39 311.803 718.061 333.296C673.732 354.788 646.866 354.788 551.492 358.818C456.117 362.848 434.624 326.579 442.684 245.981Z" fill="#C9C9C9"/>
<path d="M332.678 327.075C368.142 286.238 398.5 266.627 419.993 257.223C435.267 250.541 447.397 246.208 471.039 245.133C500.591 243.79 538.204 292.149 555.667 314.985C573.13 337.821 587.906 371.404 575.816 409.017C563.727 446.629 471.039 468.122 391.784 477.525C312.529 486.928 265.513 464.092 261.483 438.569C257.453 413.046 288.349 378.121 332.678 327.075Z" fill="#E7E1E1"/>
<path d="M390.129 211.684C380.802 211.684 374.379 235.82 372.334 247.889C370.694 255.866 368.652 273.048 391.356 274.275C414.061 275.502 409.765 253.411 409.152 247.889C408.538 242.366 401.788 211.684 390.129 211.684Z" fill="#FFA032"/>
<path d="M391.356 273.661V292.684" stroke="#9E9CA8" stroke-width="4"/>
</svg>
